<svg width="132" height="20" viewBox="0 0 132 20" fill="none" xmlns="http://www.w3.org/2000/svg">
<path fill-rule="evenodd" clip-rule="evenodd" d="M10.8101 15.1646L9.76947 11.8418H4.97322L3.93262 15.1646H1L5.73948 1.46519H9.0978L13.8467 15.1646H10.8101ZM7.33823 4.08544L5.58812 9.6962H9.15456L7.40445 4.08544H7.33823ZM15.0009 15.1646H17.7632V9.37342C17.7632 8.0443 18.5295 7.13291 19.7782 7.13291C21.0364 7.13291 21.6513 7.89241 21.6513 9.22152V15.1646H24.4136V8.64241C24.4136 6.25949 23.146 4.83544 20.8945 4.83544C19.3336 4.83544 18.3024 5.51899 17.7254 6.81962H17.6686V4.98734H15.0009V15.1646ZM26.9016 2.64241V4.98734H25.4731V7.07595H26.9016V12.4114C26.9016 14.3956 27.8287 15.2025 30.2126 15.2025C30.7708 15.2025 31.2438 15.1456 31.5276 15.0886V13.0475C31.3573 13.0759 31.1019 13.0949 30.8559 13.0949C30.0424 13.0949 29.6639 12.7152 29.6639 11.9367V7.07595H31.537V4.98734H29.6639V2.64241H26.9016ZM37.1185 1.46519H42.331C46.4272 1.46519 48.8395 3.91456 48.8395 8.26266C48.8395 12.6108 46.4272 15.1646 42.331 15.1646H37.1185V1.46519ZM39.9754 3.82911V12.7911H41.9904C44.5446 12.7911 45.9258 11.2342 45.9258 8.27215C45.9258 5.40506 44.5068 3.82911 41.9904 3.82911H39.9754ZM54.9885 6.85759C53.7871 6.85759 52.9073 7.74051 52.8127 9.01266H57.117C57.0603 7.71203 56.2088 6.85759 54.9885 6.85759ZM57.1549 12.0506H59.6901C59.3874 14.0348 57.5522 15.3449 55.0642 15.3449C51.9613 15.3449 50.0693 13.3608 50.0693 10.1234C50.0693 6.87658 51.9707 4.80696 54.9601 4.80696C57.9022 4.80696 59.7753 6.77215 59.7753 9.86709V10.712H52.7843V10.8829C52.7843 12.3165 53.7209 13.2943 55.1115 13.2943C56.1048 13.2943 56.8994 12.8196 57.1549 12.0506ZM61.024 7.99684C61.024 9.48734 62.0079 10.4842 63.9282 10.9209L65.8013 11.3386C66.7095 11.557 67.0501 11.8323 67.0501 12.3354C67.0501 12.9905 66.4068 13.3987 65.3662 13.3987C64.2688 13.3987 63.5877 12.9146 63.4647 12.0696H60.7686C60.9105 14.0443 62.5849 15.3449 65.2905 15.3449C67.9677 15.3449 69.8029 14.0348 69.8029 12.0411C69.8029 10.5316 68.9799 9.73418 66.946 9.27848L65.0067 8.86076C64.1175 8.6519 63.6823 8.31962 63.6823 7.82595C63.6823 7.18038 64.3161 6.75316 65.2621 6.75316C66.2838 6.75316 66.946 7.25633 66.9933 8.0538H69.5381C69.5097 6.08861 67.8353 4.80696 65.3 4.80696C62.6984 4.80696 61.024 6.06962 61.024 7.99684ZM71.2219 15.1646H73.9843V4.98734H71.2219V15.1646ZM72.6031 3.86709C73.4167 3.86709 74.0789 3.24051 74.0789 2.43354C74.0789 1.60759 73.4167 1 72.6031 1C71.7896 1 71.1273 1.60759 71.1273 2.43354C71.1273 3.24051 71.7896 3.86709 72.6031 3.86709ZM80.5023 12.962C81.8834 12.962 82.7632 11.8608 82.7632 10.057C82.7632 8.26266 81.8834 7.09494 80.5023 7.09494C79.14 7.09494 78.2791 8.24367 78.2791 10.057C78.2791 11.8797 79.1305 12.962 80.5023 12.962ZM80.455 19C77.7872 19 75.9804 17.6994 75.7628 15.8861H78.4683C78.6859 16.5886 79.4806 17.0728 80.5306 17.0728C81.9591 17.0728 82.7538 16.2753 82.7538 15.0981V13.3133H82.697C82.224 14.3956 81.032 15.0981 79.5657 15.0981C77.0966 15.0981 75.4506 13.1804 75.4506 10.038C75.4506 6.8481 77.0493 4.86392 79.613 4.86392C81.0699 4.86392 82.2145 5.60443 82.7443 6.73418H82.7916V4.98734H85.5161V15.0222C85.5161 17.4525 83.4916 19 80.455 19ZM87.3135 15.1646H90.0758V9.37342C90.0758 8.0443 90.8421 7.13291 92.0908 7.13291C93.349 7.13291 93.9639 7.89241 93.9639 9.22152V15.1646H96.7262V8.64241C96.7262 6.25949 95.4586 4.83544 93.2071 4.83544C91.6462 4.83544 90.6151 5.51899 90.038 6.81962H89.9812V4.98734H87.3135V15.1646ZM102.544 1.46519H108.097C110.897 1.46519 112.827 3.33544 112.827 6.15506C112.827 8.96519 110.831 10.8449 107.955 10.8449H105.401V15.1646H102.544V1.46519ZM105.401 3.73418V8.60443H107.331C108.968 8.60443 109.923 7.73101 109.923 6.16456C109.923 4.60759 108.977 3.73418 107.34 3.73418H105.401ZM114.275 15.1646H117.037V9.51582C117.037 8.08228 117.832 7.24684 119.194 7.24684C119.591 7.24684 119.97 7.31329 120.197 7.40823V4.96835C119.998 4.9019 119.733 4.86392 119.411 4.86392C118.219 4.86392 117.349 5.55696 116.999 6.81962H116.942V4.98734H114.275V15.1646ZM125.977 15.3449C122.883 15.3449 120.953 13.3703 120.953 10.0665C120.953 6.81013 122.912 4.80696 125.977 4.80696C129.042 4.80696 131 6.80063 131 10.0665C131 13.3797 129.07 15.3449 125.977 15.3449ZM125.977 13.2278C127.358 13.2278 128.19 12.0791 128.19 10.0759C128.19 8.09177 127.358 6.92405 125.977 6.92405C124.596 6.92405 123.754 8.10127 123.754 10.0759C123.754 12.0791 124.586 13.2278 125.977 13.2278Z" fill="white"/>
<path d="M10.8101 15.1646L10.6669 15.2094L10.6999 15.3146H10.8101V15.1646ZM9.76947 11.8418L9.91261 11.7969L9.87967 11.6918H9.76947V11.8418ZM4.97322 11.8418V11.6918H4.86301L4.83008 11.7969L4.97322 11.8418ZM3.93262 15.1646V15.3146H4.04282L4.07576 15.2094L3.93262 15.1646ZM1 15.1646L0.858244 15.1155L0.789382 15.3146H1V15.1646ZM5.73948 1.46519V1.31519H5.63266L5.59773 1.41615L5.73948 1.46519ZM9.0978 1.46519L9.23953 1.41606L9.20456 1.31519H9.0978V1.46519ZM13.8467 15.1646V15.3146H14.0575L13.9885 15.1154L13.8467 15.1646ZM7.33823 4.08544V3.93544H7.22789L7.19504 4.04078L7.33823 4.08544ZM5.58812 9.6962L5.44493 9.65154L5.38421 9.8462H5.58812V9.6962ZM9.15456 9.6962V9.8462H9.35848L9.29776 9.65154L9.15456 9.6962ZM7.40445 4.08544L7.54765 4.04078L7.51479 3.93544H7.40445V4.08544ZM15.0009 15.1646H14.8509V15.3146H15.0009V15.1646ZM17.7632 15.1646V15.3146H17.9132V15.1646H17.7632ZM21.6513 15.1646H21.5013V15.3146H21.6513V15.1646ZM24.4136 15.1646V15.3146H24.5636V15.1646H24.4136ZM17.7254 6.81962V6.96962H17.8229L17.8625 6.88045L17.7254 6.81962ZM17.6686 6.81962H17.5186V6.96962H17.6686V6.81962ZM17.6686 4.98734H17.8186V4.83734H17.6686V4.98734ZM15.0009 4.98734V4.83734H14.8509V4.98734H15.0009ZM26.9016 2.64241V2.49241H26.7516V2.64241H26.9016ZM26.9016 4.98734V5.13734H27.0516V4.98734H26.9016ZM25.4731 4.98734V4.83734H25.3231V4.98734H25.4731ZM25.4731 7.07595H25.3231V7.22595H25.4731V7.07595ZM26.9016 7.07595H27.0516V6.92595H26.9016V7.07595ZM31.5276 15.0886L31.5571 15.2357L31.6776 15.2115V15.0886H31.5276ZM31.5276 13.0475H31.6776V12.8703L31.5028 12.8995L31.5276 13.0475ZM29.6639 7.07595V6.92595H29.514V7.07595H29.6639ZM31.537 7.07595V7.22595H31.687V7.07595H31.537ZM31.537 4.98734H31.687V4.83734H31.537V4.98734ZM29.6639 4.98734H29.514V5.13734H29.6639V4.98734ZM29.6639 2.64241H29.8139V2.49241H29.6639V2.64241ZM37.1185 1.46519V1.31519H36.9685V1.46519H37.1185ZM37.1185 15.1646H36.9685V15.3146H37.1185V15.1646ZM39.9754 3.82911V3.67911H39.8254V3.82911H39.9754ZM39.9754 12.7911H39.8254V12.9411H39.9754V12.7911ZM52.8127 9.01266L52.6631 9.00153L52.6511 9.16266H52.8127V9.01266ZM57.117 9.01266V9.16266H57.2737L57.2669 9.00612L57.117 9.01266ZM57.1549 12.0506V11.9006H57.0466L57.0125 12.0034L57.1549 12.0506ZM59.6901 12.0506L59.8384 12.0733L59.8648 11.9006H59.6901V12.0506ZM59.7753 10.712V10.862H59.9253V10.712H59.7753ZM52.7843 10.712V10.562H52.6343V10.712H52.7843ZM63.9282 10.9209L63.895 11.0672L63.8956 11.0673L63.9282 10.9209ZM65.8013 11.3386L65.8364 11.1927L65.834 11.1922L65.8013 11.3386ZM63.4647 12.0696L63.6131 12.048L63.5945 11.9196H63.4647V12.0696ZM60.7686 12.0696V11.9196H60.6074L60.619 12.0804L60.7686 12.0696ZM66.946 9.27848L66.9788 9.1321L66.9776 9.13184L66.946 9.27848ZM65.0067 8.86076L64.9724 9.00681L64.9751 9.0074L65.0067 8.86076ZM66.9933 8.0538L66.8436 8.06268L66.8519 8.2038H66.9933V8.0538ZM69.5381 8.0538V8.2038H69.6902L69.688 8.05163L69.5381 8.0538ZM71.2219 15.1646H71.0719V15.3146H71.2219V15.1646ZM73.9843 15.1646V15.3146H74.1343V15.1646H73.9843ZM73.9843 4.98734H74.1343V4.83734H73.9843V4.98734ZM71.2219 4.98734V4.83734H71.0719V4.98734H71.2219ZM75.7628 15.8861V15.7361H75.5937L75.6138 15.9039L75.7628 15.8861ZM78.4683 15.8861L78.6116 15.8417L78.5789 15.7361H78.4683V15.8861ZM82.7538 13.3133H82.9037V13.1633H82.7538V13.3133ZM82.697 13.3133V13.1633H82.5988L82.5595 13.2532L82.697 13.3133ZM82.7443 6.73418L82.6085 6.79786L82.649 6.88418H82.7443V6.73418ZM82.7916 6.73418V6.88418H82.9416V6.73418H82.7916ZM82.7916 4.98734V4.83734H82.6416V4.98734H82.7916ZM85.5161 4.98734H85.6661V4.83734H85.5161V4.98734ZM87.3135 15.1646H87.1635V15.3146H87.3135V15.1646ZM90.0758 15.1646V15.3146H90.2258V15.1646H90.0758ZM93.9639 15.1646H93.8139V15.3146H93.9639V15.1646ZM96.7262 15.1646V15.3146H96.8762V15.1646H96.7262ZM90.038 6.81962V6.96962H90.1355L90.1751 6.88045L90.038 6.81962ZM89.9812 6.81962H89.8312V6.96962H89.9812V6.81962ZM89.9812 4.98734H90.1312V4.83734H89.9812V4.98734ZM87.3135 4.98734V4.83734H87.1635V4.98734H87.3135ZM102.544 1.46519V1.31519H102.394V1.46519H102.544ZM105.401 10.8449V10.6949H105.251V10.8449H105.401ZM105.401 15.1646V15.3146H105.551V15.1646H105.401ZM102.544 15.1646H102.394V15.3146H102.544V15.1646ZM105.401 3.73418V3.58418H105.251V3.73418H105.401ZM105.401 8.60443H105.251V8.75443H105.401V8.60443ZM114.275 15.1646H114.125V15.3146H114.275V15.1646ZM117.037 15.1646V15.3146H117.187V15.1646H117.037ZM120.197 7.40823L120.139 7.54662L120.347 7.63354V7.40823H120.197ZM120.197 4.96835H120.347V4.86036L120.244 4.8261L120.197 4.96835ZM116.999 6.81962V6.96962H117.113L117.144 6.85969L116.999 6.81962ZM116.942 6.81962H116.792V6.96962H116.942V6.81962ZM116.942 4.98734H117.092V4.83734H116.942V4.98734ZM114.275 4.98734V4.83734H114.125V4.98734H114.275ZM10.9532 15.1197L9.91261 11.7969L9.62632 11.8866L10.6669 15.2094L10.9532 15.1197ZM9.76947 11.6918H4.97322V11.9918H9.76947V11.6918ZM4.83008 11.7969L3.78947 15.1197L4.07576 15.2094L5.11637 11.8866L4.83008 11.7969ZM3.93262 15.0146H1V15.3146H3.93262V15.0146ZM1.14176 15.2136L5.88124 1.51423L5.59773 1.41615L0.858244 15.1155L1.14176 15.2136ZM5.73948 1.61519H9.0978V1.31519H5.73948V1.61519ZM8.95608 1.51432L13.705 15.2137L13.9885 15.1154L9.23953 1.41606L8.95608 1.51432ZM13.8467 15.0146H10.8101V15.3146H13.8467V15.0146ZM7.19504 4.04078L5.44493 9.65154L5.73132 9.74087L7.48143 4.13011L7.19504 4.04078ZM5.58812 9.8462H9.15456V9.5462H5.58812V9.8462ZM9.29776 9.65154L7.54765 4.04078L7.26126 4.13011L9.01137 9.74087L9.29776 9.65154ZM7.40445 3.93544H7.33823V4.23544H7.40445V3.93544ZM15.0009 15.3146H17.7632V15.0146H15.0009V15.3146ZM17.9132 15.1646V9.37342H17.6132V15.1646H17.9132ZM17.9132 9.37342C17.9132 8.73691 18.0965 8.21481 18.4149 7.85399C18.7315 7.49525 19.1927 7.28291 19.7782 7.28291V6.98291C19.1149 6.98291 18.5687 7.22627 18.19 7.6555C17.813 8.08266 17.6132 8.68082 17.6132 9.37342H17.9132ZM19.7782 7.28291C20.3762 7.28291 20.7983 7.46229 21.0736 7.77748C21.352 8.09622 21.5013 8.57742 21.5013 9.22152H21.8013C21.8013 8.5365 21.6431 7.9734 21.2995 7.58011C20.9529 7.18328 20.4383 6.98291 19.7782 6.98291V7.28291ZM21.5013 9.22152V15.1646H21.8013V9.22152H21.5013ZM21.6513 15.3146H24.4136V15.0146H21.6513V15.3146ZM24.5636 15.1646V8.64241H24.2636V15.1646H24.5636ZM24.5636 8.64241C24.5636 7.4256 24.2398 6.43341 23.609 5.74407C22.9765 5.05281 22.0529 4.68544 20.8945 4.68544V4.98544C21.9876 4.98544 22.8236 5.3301 23.3877 5.9466C23.9536 6.56501 24.2636 7.4763 24.2636 8.64241H24.5636ZM20.8945 4.68544C20.0919 4.68544 19.4145 4.86136 18.8606 5.21317C18.3063 5.56521 17.8866 6.08645 17.5883 6.75879L17.8625 6.88045C18.1412 6.25216 18.5256 5.78131 19.0214 5.46641C19.5176 5.15129 20.1362 4.98544 20.8945 4.98544V4.68544ZM17.7254 6.66962H17.6686V6.96962H17.7254V6.66962ZM17.8186 6.81962V4.98734H17.5186V6.81962H17.8186ZM17.6686 4.83734H15.0009V5.13734H17.6686V4.83734ZM14.8509 4.98734V15.1646H15.1509V4.98734H14.8509ZM26.7516 2.64241V4.98734H27.0516V2.64241H26.7516ZM26.9016 4.83734H25.4731V5.13734H26.9016V4.83734ZM25.3231 4.98734V7.07595H25.6231V4.98734H25.3231ZM25.4731 7.22595H26.9016V6.92595H25.4731V7.22595ZM26.7516 7.07595V12.4114H27.0516V7.07595H26.7516ZM26.7516 12.4114C26.7516 13.424 26.9882 14.1748 27.5661 14.6654C28.1375 15.1505 29.0105 15.3525 30.2126 15.3525V15.0525C29.0308 15.0525 28.2484 14.8511 27.7602 14.4367C27.2786 14.0278 27.0516 13.3829 27.0516 12.4114H26.7516ZM30.2126 15.3525C30.7799 15.3525 31.2629 15.2947 31.5571 15.2357L31.4981 14.9415C31.2247 14.9964 30.7616 15.0525 30.2126 15.0525V15.3525ZM31.6776 15.0886V13.0475H31.3776V15.0886H31.6776ZM31.5028 12.8995C31.3428 12.9263 31.096 12.9449 30.8559 12.9449V13.2449C31.1077 13.2449 31.3718 13.2256 31.5523 13.1954L31.5028 12.8995ZM30.8559 12.9449C30.4697 12.9449 30.2171 12.8546 30.0598 12.7006C29.9032 12.5472 29.8139 12.3039 29.8139 11.9367H29.514C29.514 12.348 29.6139 12.6838 29.8499 12.9149C30.0852 13.1454 30.4286 13.2449 30.8559 13.2449V12.9449ZM29.8139 11.9367V7.07595H29.514V11.9367H29.8139ZM29.6639 7.22595H31.537V6.92595H29.6639V7.22595ZM31.687 7.07595V4.98734H31.387V7.07595H31.687ZM31.537 4.83734H29.6639V5.13734H31.537V4.83734ZM29.8139 4.98734V2.64241H29.514V4.98734H29.8139ZM29.6639 2.49241H26.9016V2.79241H29.6639V2.49241ZM37.1185 1.61519H42.331V1.31519H37.1185V1.61519ZM42.331 1.61519C44.349 1.61519 45.9331 2.21785 47.0133 3.33753C48.0942 4.45794 48.6895 6.11564 48.6895 8.26266H48.9895C48.9895 6.06158 48.3785 4.32054 47.2292 3.12924C46.0792 1.93722 44.4091 1.31519 42.331 1.31519V1.61519ZM48.6895 8.26266C48.6895 10.4097 48.0942 12.0943 47.0122 13.2412C45.9313 14.3869 44.3472 15.0146 42.331 15.0146V15.3146C44.4109 15.3146 46.0811 14.6653 47.2304 13.4471C48.3786 12.23 48.9895 10.4637 48.9895 8.26266H48.6895ZM42.331 15.0146H37.1185V15.3146H42.331V15.0146ZM37.2685 15.1646V1.46519H36.9685V15.1646H37.2685ZM39.8254 3.82911V12.7911H40.1254V3.82911H39.8254ZM39.9754 12.9411H41.9904V12.6411H39.9754V12.9411ZM41.9904 12.9411C43.2989 12.9411 44.3288 12.5412 45.0288 11.7412C45.7259 10.9446 46.0758 9.77394 46.0758 8.27215H45.7758C45.7758 9.73239 45.4351 10.8213 44.803 11.5436C44.1739 12.2626 43.2361 12.6411 41.9904 12.6411V12.9411ZM46.0758 8.27215C46.0758 6.81577 45.7154 5.66449 45.0138 4.87578C44.3098 4.08436 43.281 3.67911 41.9904 3.67911V3.97911C43.2162 3.97911 44.1551 4.36184 44.7896 5.07517C45.4266 5.79121 45.7758 6.86144 45.7758 8.27215H46.0758ZM41.9904 3.67911H39.9754V3.97911H41.9904V3.67911ZM54.9885 6.70759C53.6994 6.70759 52.7628 7.66055 52.6631 9.00153L52.9623 9.02378C53.0518 7.82046 53.8748 7.0076 54.9885 7.0076V6.70759ZM52.8127 9.16266H57.117V8.86266H52.8127V9.16266ZM57.2669 9.00612C57.2371 8.32435 56.9982 7.74835 56.5957 7.34185C56.1926 6.93474 55.6351 6.70759 54.9885 6.70759V7.0076C55.5623 7.0076 56.0406 7.20767 56.3825 7.55293C56.725 7.8988 56.9401 8.40034 56.9672 9.0192L57.2669 9.00612ZM57.1549 12.2006H59.6901V11.9006H57.1549V12.2006ZM59.5419 12.028C59.2537 13.9166 57.5032 15.1949 55.0642 15.1949V15.4949C57.6012 15.4949 59.5211 14.153 59.8384 12.0733L59.5419 12.028ZM55.0642 15.1949C53.5455 15.1949 52.339 14.7102 51.5116 13.8445C50.6834 12.978 50.2193 11.7132 50.2193 10.1234H49.9193C49.9193 11.771 50.4011 13.1169 51.2947 14.0518C52.1891 14.9876 53.4799 15.4949 55.0642 15.4949V15.1949ZM50.2193 10.1234C50.2193 8.52886 50.6859 7.2389 51.5041 6.34916C52.3211 5.46077 53.5017 4.95696 54.9601 4.95696V4.65696C53.4292 4.65696 52.1644 5.18796 51.2833 6.14609C50.4034 7.10287 49.9193 8.47114 49.9193 10.1234H50.2193ZM54.9601 4.95696C56.3966 4.95696 57.5588 5.43585 58.3623 6.27985C59.1666 7.12464 59.6253 8.34981 59.6253 9.86709H59.9253C59.9253 8.28943 59.4474 6.98454 58.5796 6.073C57.7111 5.16067 56.4657 4.65696 54.9601 4.65696V4.95696ZM59.6253 9.86709V10.712H59.9253V9.86709H59.6253ZM59.7753 10.562H52.7843V10.862H59.7753V10.562ZM52.6343 10.712V10.8829H52.9343V10.712H52.6343ZM52.6343 10.8829C52.6343 11.6327 52.8797 12.2747 53.3184 12.7302C53.7575 13.1862 54.3797 13.4443 55.1115 13.4443V13.1443C54.4526 13.1443 53.9113 12.9135 53.5345 12.5221C53.1571 12.1303 52.9343 11.5666 52.9343 10.8829H52.6343ZM55.1115 13.4443C56.1484 13.4443 57.0155 12.946 57.2972 12.0979L57.0125 12.0034C56.7834 12.6932 56.0611 13.1443 55.1115 13.1443V13.4443ZM60.874 7.99684C60.874 8.77838 61.1334 9.43921 61.6495 9.95965C62.1622 10.4767 62.9179 10.845 63.895 11.0672L63.9615 10.7746C63.0182 10.5601 62.3218 10.2116 61.8625 9.74841C61.4066 9.28864 61.174 8.7058 61.174 7.99684H60.874ZM63.8956 11.0673L65.7687 11.485L65.834 11.1922L63.9609 10.7745L63.8956 11.0673ZM65.7663 11.4845C66.2156 11.5925 66.5007 11.7098 66.6725 11.8473C66.8329 11.9757 66.9001 12.1259 66.9001 12.3354H67.2001C67.2001 12.0418 67.0969 11.8027 66.86 11.6131C66.6345 11.4326 66.2952 11.3031 65.8364 11.1928L65.7663 11.4845ZM66.9001 12.3354C66.9001 12.6054 66.771 12.8261 66.5182 12.986C66.2595 13.1495 65.8697 13.2487 65.3662 13.2487V13.5487C65.9032 13.5487 66.3554 13.4438 66.6785 13.2395C67.0074 13.0315 67.2001 12.7205 67.2001 12.3354H66.9001ZM65.3662 13.2487C64.838 13.2487 64.4265 13.1321 64.1362 12.9283C63.8493 12.7268 63.6691 12.4323 63.6131 12.048L63.3163 12.0912C63.3833 12.5519 63.6051 12.9219 63.9639 13.1738C64.3192 13.4233 64.797 13.5487 65.3662 13.5487V13.2487ZM63.4647 11.9196H60.7686V12.2196H63.4647V11.9196ZM60.619 12.0804C60.693 13.1111 61.169 13.9702 61.9791 14.5684C62.7861 15.1644 63.9151 15.4949 65.2905 15.4949V15.1949C63.9603 15.1949 62.8993 14.8751 62.1573 14.3271C61.4183 13.7814 60.986 13.0028 60.9182 12.0589L60.619 12.0804ZM65.2905 15.4949C66.6517 15.4949 67.8133 15.1621 68.6389 14.562C69.4681 13.9593 69.9529 13.0896 69.9529 12.0411H69.6529C69.6529 12.9863 69.2202 13.7686 68.4625 14.3193C67.7011 14.8727 66.6065 15.1949 65.2905 15.1949V15.4949ZM69.9529 12.0411C69.9529 11.2564 69.7375 10.6367 69.2415 10.1568C68.7521 9.68334 68.0057 9.36219 66.9788 9.13211L66.9132 9.42485C67.9202 9.65047 68.6023 9.9559 69.0329 10.3724C69.4568 10.7826 69.6529 11.3164 69.6529 12.0411H69.9529ZM66.9776 9.13184L65.0383 8.71412L64.9751 9.0074L66.9144 9.42512L66.9776 9.13184ZM65.041 8.71473C64.605 8.61232 64.2982 8.4833 64.1031 8.33171C63.9143 8.18507 63.8323 8.02007 63.8323 7.82595H63.5323C63.5323 8.1255 63.6678 8.37348 63.919 8.56861C64.1638 8.75879 64.5192 8.90034 64.9724 9.00679L65.041 8.71473ZM63.8323 7.82595C63.8323 7.55915 63.9606 7.33492 64.2016 7.17165C64.4466 7.00566 64.8095 6.90316 65.2621 6.90316V6.60316C64.7687 6.60316 64.3418 6.71428 64.0333 6.92329C63.7209 7.13501 63.5323 7.44718 63.5323 7.82595H63.8323ZM65.2621 6.90316C65.7497 6.90316 66.1363 7.02332 66.4028 7.22422C66.6663 7.42277 66.8225 7.70708 66.8436 8.06268L67.143 8.04492C67.1168 7.60305 66.9183 7.23704 66.5834 6.98464C66.2516 6.73459 65.7962 6.60316 65.2621 6.60316V6.90316ZM66.9933 8.2038H69.5381V7.9038H66.9933V8.2038ZM69.688 8.05163C69.6732 7.02256 69.2254 6.16799 68.4503 5.57435C67.6786 4.98326 66.5913 4.65696 65.3 4.65696V4.95696C66.5439 4.95696 67.5615 5.27149 68.2679 5.81252C68.9709 6.351 69.3746 7.11984 69.3881 8.05596L69.688 8.05163ZM65.3 4.65696C63.9768 4.65696 62.8733 4.97788 62.0965 5.55909C61.3159 6.14325 60.874 6.98474 60.874 7.99684H61.174C61.174 7.08171 61.5694 6.32827 62.2763 5.79929C62.9871 5.26738 64.0216 4.95696 65.3 4.95696V4.65696ZM71.2219 15.3146H73.9843V15.0146H71.2219V15.3146ZM74.1343 15.1646V4.98734H73.8343V15.1646H74.1343ZM73.9843 4.83734H71.2219V5.13734H73.9843V4.83734ZM71.0719 4.98734V15.1646H71.3719V4.98734H71.0719ZM72.6031 4.01709C73.4942 4.01709 74.2289 3.32854 74.2289 2.43354H73.9289C73.9289 3.15247 73.3391 3.71709 72.6031 3.71709V4.01709ZM74.2289 2.43354C74.2289 1.51828 73.4929 0.85 72.6031 0.85V1.15C73.3405 1.15 73.9289 1.69691 73.9289 2.43354H74.2289ZM72.6031 0.85C71.7133 0.85 70.9773 1.51828 70.9773 2.43354H71.2774C71.2774 1.69691 71.8658 1.15 72.6031 1.15V0.85ZM70.9773 2.43354C70.9773 3.32854 71.712 4.01709 72.6031 4.01709V3.71709C71.8671 3.71709 71.2774 3.15247 71.2774 2.43354H70.9773ZM80.5023 13.112C81.2368 13.112 81.8464 12.8172 82.2687 12.2785C82.6879 11.7437 82.9132 10.9814 82.9132 10.057H82.6132C82.6132 10.9363 82.3986 11.6265 82.0326 12.0934C81.6698 12.5562 81.1489 12.812 80.5023 12.812V13.112ZM82.9132 10.057C82.9132 9.13715 82.6879 8.36167 82.2701 7.81228C81.8492 7.25893 81.2399 6.94494 80.5023 6.94494V7.24494C81.1458 7.24494 81.6669 7.51481 82.0313 7.99389C82.3986 8.47694 82.6132 9.18247 82.6132 10.057H82.9132ZM80.5023 6.94494C79.774 6.94494 79.1737 7.2543 78.7599 7.80595C78.3493 8.35323 78.1291 9.12862 78.1291 10.057H78.4291C78.4291 9.17201 78.6394 8.4664 78.9998 7.98598C79.357 7.50994 79.8683 7.24494 80.5023 7.24494V6.94494ZM78.1291 10.057C78.1291 10.9895 78.3467 11.7518 78.7575 12.2846C79.1719 12.822 79.7727 13.112 80.5023 13.112V12.812C79.8601 12.812 79.3494 12.5609 78.9951 12.1014C78.6373 11.6374 78.4291 10.9472 78.4291 10.057H78.1291ZM80.455 18.85C77.8262 18.85 76.1164 17.5744 75.9117 15.8682L75.6138 15.9039C75.8443 17.8243 77.7482 19.15 80.455 19.15V18.85ZM75.7628 16.0361H78.4683V15.7361H75.7628V16.0361ZM78.3251 15.9305C78.5693 16.7191 79.443 17.2228 80.5306 17.2228V16.9228C79.5181 16.9228 78.8025 16.4581 78.6116 15.8417L78.3251 15.9305ZM80.5306 17.2228C81.2722 17.2228 81.8677 17.0155 82.2793 16.6374C82.6923 16.258 82.9037 15.7217 82.9037 15.0981H82.6038C82.6038 15.6517 82.4179 16.1027 82.0764 16.4164C81.7336 16.7313 81.2176 16.9228 80.5306 16.9228V17.2228ZM82.9037 15.0981V13.3133H82.6038V15.0981H82.9037ZM82.7538 13.1633H82.697V13.4633H82.7538V13.1633ZM82.5595 13.2532C82.1157 14.2689 80.9867 14.9481 79.5657 14.9481V15.2481C81.0774 15.2481 82.3323 14.5223 82.8344 13.3734L82.5595 13.2532ZM79.5657 14.9481C78.3732 14.9481 77.3879 14.4866 76.6979 13.6509C76.0056 12.8124 75.6006 11.5843 75.6006 10.038H75.3006C75.3006 11.6341 75.7186 12.936 76.4666 13.8419C77.2169 14.7507 78.2891 15.2481 79.5657 15.2481V14.9481ZM75.6006 10.038C75.6006 8.46638 75.9945 7.20953 76.6873 6.34879C77.3771 5.49172 78.3735 5.01392 79.613 5.01392V4.71392C78.2888 4.71392 77.2041 5.22821 76.4536 6.1607C75.706 7.08952 75.3006 8.4197 75.3006 10.038H75.6006ZM79.613 5.01392C81.016 5.01392 82.1052 5.7246 82.6085 6.79786L82.8801 6.67049C82.3239 5.48426 81.1237 4.71392 79.613 4.71392V5.01392ZM82.7443 6.88418H82.7916V6.58418H82.7443V6.88418ZM82.9416 6.73418V4.98734H82.6416V6.73418H82.9416ZM82.7916 5.13734H85.5161V4.83734H82.7916V5.13734ZM85.3661 4.98734V15.0222H85.6661V4.98734H85.3661ZM85.3661 15.0222C85.3661 16.1913 84.8811 17.1421 84.032 17.8042C83.1794 18.4691 81.9495 18.85 80.455 18.85V19.15C81.9971 19.15 83.2978 18.7572 84.2165 18.0408C85.1388 17.3216 85.6661 16.2834 85.6661 15.0222H85.3661ZM87.3135 15.3146H90.0758V15.0146H87.3135V15.3146ZM90.2258 15.1646V9.37342H89.9258V15.1646H90.2258ZM90.2258 9.37342C90.2258 8.73691 90.4091 8.21481 90.7275 7.85399C91.0441 7.49525 91.5054 7.28291 92.0908 7.28291V6.98291C91.4275 6.98291 90.8813 7.22627 90.5026 7.6555C90.1256 8.08266 89.9258 8.68082 89.9258 9.37342H90.2258ZM92.0908 7.28291C92.6889 7.28291 93.1109 7.46229 93.3862 7.77748C93.6647 8.09622 93.8139 8.57742 93.8139 9.22152H94.1139C94.1139 8.5365 93.9557 7.9734 93.6122 7.58011C93.2655 7.18328 92.751 6.98291 92.0908 6.98291V7.28291ZM93.8139 9.22152V15.1646H94.1139V9.22152H93.8139ZM93.9639 15.3146H96.7262V15.0146H93.9639V15.3146ZM96.8762 15.1646V8.64241H96.5762V15.1646H96.8762ZM96.8762 8.64241C96.8762 7.4256 96.5524 6.43341 95.9216 5.74407C95.2891 5.05281 94.3655 4.68544 93.2071 4.68544V4.98544C94.3002 4.98544 95.1362 5.3301 95.7003 5.9466C96.2662 6.56501 96.5762 7.4763 96.5762 8.64241H96.8762ZM93.2071 4.68544C92.4045 4.68544 91.7271 4.86136 91.1732 5.21317C90.6189 5.56521 90.1992 6.08645 89.9009 6.75879L90.1751 6.88045C90.4539 6.25216 90.8382 5.78131 91.334 5.46641C91.8302 5.15129 92.4488 4.98544 93.2071 4.98544V4.68544ZM90.038 6.66962H89.9812V6.96962H90.038V6.66962ZM90.1312 6.81962V4.98734H89.8312V6.81962H90.1312ZM89.9812 4.83734H87.3135V5.13734H89.9812V4.83734ZM87.1635 4.98734V15.1646H87.4635V4.98734H87.1635ZM102.544 1.61519H108.097V1.31519H102.544V1.61519ZM108.097 1.61519C109.463 1.61519 110.606 2.07083 111.407 2.85963C112.208 3.64818 112.677 4.78051 112.677 6.15506H112.977C112.977 4.71 112.482 3.49739 111.618 2.64591C110.753 1.79468 109.531 1.31519 108.097 1.31519V1.61519ZM112.677 6.15506C112.677 7.52319 112.192 8.65515 111.366 9.4454C110.539 10.2362 109.36 10.6949 107.955 10.6949V10.9949C109.426 10.9949 110.683 10.5138 111.573 9.66219C112.464 8.81004 112.977 7.59706 112.977 6.15506H112.677ZM107.955 10.6949H105.401V10.9949H107.955V10.6949ZM105.251 10.8449V15.1646H105.551V10.8449H105.251ZM105.401 15.0146H102.544V15.3146H105.401V15.0146ZM102.694 15.1646V1.46519H102.394V15.1646H102.694ZM105.251 3.73418V8.60443H105.551V3.73418H105.251ZM105.401 8.75443H107.331V8.45443H105.401V8.75443ZM107.331 8.75443C108.175 8.75443 108.864 8.52908 109.343 8.08154C109.824 7.63257 110.073 6.97886 110.073 6.16456H109.773C109.773 6.91671 109.544 7.48294 109.138 7.86229C108.731 8.24307 108.124 8.45443 107.331 8.45443V8.75443ZM110.073 6.16456C110.073 5.35518 109.826 4.70385 109.348 4.25601C108.871 3.80953 108.184 3.58418 107.34 3.58418V3.88418C108.133 3.88418 108.738 4.09553 109.143 4.475C109.547 4.85311 109.773 5.41698 109.773 6.16456H110.073ZM107.34 3.58418H105.401V3.88418H107.34V3.58418ZM114.275 15.3146H117.037V15.0146H114.275V15.3146ZM117.187 15.1646V9.51582H116.887V15.1646H117.187ZM117.187 9.51582C117.187 8.82599 117.378 8.29991 117.713 7.94711C118.048 7.59534 118.544 7.39684 119.194 7.39684V7.09684C118.482 7.09684 117.899 7.31606 117.496 7.7404C117.093 8.1637 116.887 8.77211 116.887 9.51582H117.187ZM119.194 7.39684C119.579 7.39684 119.936 7.46183 120.139 7.54662L120.254 7.26984C120.003 7.16475 119.603 7.09684 119.194 7.09684V7.39684ZM120.347 7.40823V4.96835H120.047V7.40823H120.347ZM120.244 4.8261C120.026 4.75294 119.743 4.71392 119.411 4.71392V5.01392C119.723 5.01392 119.97 5.05085 120.149 5.11061L120.244 4.8261ZM119.411 4.71392C118.785 4.71392 118.235 4.89654 117.795 5.25154C117.356 5.60594 117.036 6.12415 116.855 6.77955L117.144 6.85969C117.312 6.25243 117.602 5.79279 117.984 5.48501C118.364 5.17783 118.846 5.01392 119.411 5.01392V4.71392ZM116.999 6.66962H116.942V6.96962H116.999V6.66962ZM117.092 6.81962V4.98734H116.792V6.81962H117.092ZM116.942 4.83734H114.275V5.13734H116.942V4.83734ZM114.125 4.98734V15.1646H114.425V4.98734H114.125ZM125.977 15.1949C124.463 15.1949 123.249 14.7125 122.413 13.8408C121.577 12.9684 121.103 11.6894 121.103 10.0665H120.803C120.803 11.7473 121.295 13.1075 122.197 14.0484C123.099 14.99 124.397 15.4949 125.977 15.4949V15.1949ZM121.103 10.0665C121.103 8.46832 121.583 7.19371 122.424 6.31954C123.264 5.44597 124.478 4.95696 125.977 4.95696V4.65696C124.411 4.65696 123.113 5.16953 122.208 6.11163C121.302 7.05312 120.803 8.40826 120.803 10.0665H121.103ZM125.977 4.95696C127.476 4.95696 128.69 5.44373 129.53 6.31605C130.37 7.18896 130.85 8.46348 130.85 10.0665H131.15C131.15 8.40361 130.651 7.04838 129.746 6.108C128.84 5.16703 127.543 4.65696 125.977 4.65696V4.95696ZM130.85 10.0665C130.85 11.6943 130.376 12.9732 129.54 13.8443C128.705 14.7147 127.491 15.1949 125.977 15.1949V15.4949C127.556 15.4949 128.854 14.9925 129.757 14.0521C130.659 13.1123 131.15 11.7519 131.15 10.0665H130.85ZM125.977 13.3778C126.715 13.3778 127.314 13.068 127.724 12.4898C128.129 11.9179 128.34 11.0954 128.34 10.0759H128.04C128.04 11.0597 127.836 11.8131 127.479 12.3164C127.127 12.8133 126.62 13.0778 125.977 13.0778V13.3778ZM128.34 10.0759C128.34 9.06571 128.129 8.2435 127.724 7.66949C127.315 7.08932 126.716 6.77405 125.977 6.77405V7.07405C126.619 7.07405 127.126 7.34264 127.479 7.84238C127.836 8.34828 128.04 9.10202 128.04 10.0759H128.34ZM125.977 6.77405C125.238 6.77405 124.636 7.09192 124.225 7.67282C123.818 8.24784 123.604 9.06999 123.604 10.0759H123.904C123.904 9.10722 124.111 8.35342 124.47 7.84617C124.825 7.34479 125.335 7.07405 125.977 7.07405V6.77405ZM123.604 10.0759C123.604 11.0954 123.815 11.918 124.221 12.49C124.632 13.0683 125.234 13.3778 125.977 13.3778V13.0778C125.329 13.0778 124.819 12.813 124.466 12.3162C124.108 11.813 123.904 11.0597 123.904 10.0759H123.604Z" fill="#002140"/>
</svg>
