<svg width="24" height="24" viewBox="0 0 24 24" fill="none" xmlns="http://www.w3.org/2000/svg">
<circle cx="12" cy="12" r="12" fill="#A6DBFF"/>
<mask id="mask0_0_6027" style="mask-type:luminance" maskUnits="userSpaceOnUse" x="0" y="0" width="24" height="24">
<circle cx="12" cy="12" r="12" fill="white"/>
</mask>
<g mask="url(#mask0_0_6027)">
<path d="M9.28461 7.26639C9.28461 7.26639 12.5171 6.72626 13.709 5.41685C14.7863 4.22202 14.7702 2.87988 14.7702 2.87988" stroke="#2150B7" stroke-width="0.654702" stroke-linecap="round" stroke-linejoin="round"/>
<path d="M12.664 3.37085C12.664 3.37085 13.3823 6.12076 11.7335 7.92119" stroke="#2150B7" stroke-width="0.654702" stroke-linecap="round" stroke-linejoin="round"/>
<path d="M11.211 4.68042C11.211 4.68042 11.5212 5.679 11.0804 6.61195" stroke="#2150B7" stroke-width="0.654702" stroke-linecap="round" stroke-linejoin="round"/>
<path fill-rule="evenodd" clip-rule="evenodd" d="M13.7246 22.2827C13.7246 22.2827 16.1514 21.4101 15.4148 21.6242C14.9501 21.7593 14.4416 21.9258 14.0185 22.1095C13.0716 22.5187 13.1369 23.7624 13.8389 24.1882C14.5409 24.6301 17.4469 24.6954 18.3936 23.5169C20.2059 21.5037 17.1367 16.0044 17.1367 16.0044C17.1367 16.0044 16.402 15.3824 13.7246 15.0385C11.0636 14.695 8.53309 16.3645 8.53309 16.3645C8.53309 16.3645 6.96568 17.5593 5.82289 21.471C5.00661 24.2535 8.30454 24.0245 8.30454 24.0245C8.30454 24.0245 9.33289 25.7265 11.3248 25.6774C13.7408 25.6285 15.0144 25.2029 15.8796 24.5155C15.8796 24.5155 14.0564 24.4437 13.6518 24.0245C13.3381 23.6994 13.7246 22.2827 13.7246 22.2827Z" fill="#91D5FF"/>
<path fill-rule="evenodd" clip-rule="evenodd" d="M17.9263 17.2451C17.9263 17.2451 18.8568 15.6247 18.0242 15.0355C17.1751 14.4299 17.5181 14.4952 17.3059 13.8243C16.8814 12.7931 15.657 12.5803 15.657 12.5803C15.657 12.5803 14.1877 12.482 12.9633 12.5803C11.7389 12.6785 9.60024 13.5788 9.60024 13.5788C9.60024 13.5788 6.9555 15.5265 9.22475 16.5249C10.3349 17.5232 11.0695 18.6036 11.0695 18.6036C11.0695 18.6036 15.6407 15.1173 17.3059 16.0501L17.9263 17.2451Z" fill="#43BCFF"/>
<path fill-rule="evenodd" clip-rule="evenodd" d="M12.6758 9.42702C16.2674 10.2781 15.2879 6.64453 15.2879 6.64453C15.2879 6.64453 15.0104 6.87351 5.18237 10.5891C4.08855 13.0442 9.65558 13.1261 9.65558 13.1261L9.476 15.5812L11.0596 17.709C11.0596 17.709 12.2465 16.4574 13.6204 15.4017C14.4193 14.7878 15.4203 14.2413 15.9246 14.0427L14.439 9.49232" fill="#D7F0FF"/>
<path fill-rule="evenodd" clip-rule="evenodd" d="M15.2879 6.64453C15.2879 6.64453 15.0104 6.87351 5.18237 10.5891C4.08855 13.0442 9.65558 13.1261 9.65558 13.1261L9.476 15.5812L11.0401 17.7669C11.0401 17.7669 12.6296 16.0557 13.7402 15.2395C14.8507 14.4234 16.1288 14.0272 16.1288 14.0272L14.5215 9.42607C14.5215 9.42607 15.1094 8.91178 15.206 8.62456C15.5461 7.61444 15.2879 6.64453 15.2879 6.64453Z" fill="white"/>
<path d="M12.6758 9.42702C16.2674 10.2781 15.2879 6.64453 15.2879 6.64453C15.2879 6.64453 15.0104 6.87351 5.18237 10.5891C4.08855 13.0442 9.65558 13.1261 9.65558 13.1261L9.476 15.5812" stroke="#2150B7" stroke-width="0.5" stroke-linecap="round" stroke-linejoin="round"/>
<path d="M16.3699 14.0098C14.2639 14.1081 10.9988 17.807 10.9988 17.807L9.28461 15.3846" stroke="#2150B7" stroke-width="0.5" stroke-linecap="round" stroke-linejoin="round"/>
<path d="M9.60024 13.6824C9.60024 13.6824 6.9555 15.6301 9.22475 16.6285C10.5471 17.9054 11.0695 18.7072 11.0695 18.7072C11.0695 18.7072 15.7713 14.7463 17.7957 16.154" stroke="#2150B7" stroke-width="0.5" stroke-linecap="round" stroke-linejoin="round"/>
<path d="M8.5041 16.3013C8.5041 16.3013 6.82257 17.4635 5.79406 21.4079C5.09222 24.1086 8.27571 23.9614 8.27571 23.9614" stroke="#2150B7" stroke-width="0.5" stroke-linecap="round" stroke-linejoin="round"/>
<path d="M6.83582 21.1144C6.83582 21.1144 8.22349 20.6561 8.77856 22.1455" stroke="#2150B7" stroke-width="0.5" stroke-linecap="round" stroke-linejoin="round"/>
<path fill-rule="evenodd" clip-rule="evenodd" d="M10.1009 19.9021H12.9415L12.4846 24.6814H10.5743L10.1009 19.9021Z" fill="white"/>
<path fill-rule="evenodd" clip-rule="evenodd" d="M10.1009 19.9021H12.9415L12.4846 24.6814H10.5743L10.1009 19.9021Z" stroke="#2150B7" stroke-width="0.5" stroke-linecap="round" stroke-linejoin="round"/>
<path d="M8.94179 19.2473L8.79486 22.1609" stroke="#2150B7" stroke-width="0.5" stroke-linecap="round" stroke-linejoin="round"/>
<path fill-rule="evenodd" clip-rule="evenodd" d="M6.83701 23.5468C6.83701 23.5468 6.77187 22.663 7.60431 22.3356C8.92668 21.8282 10.2002 22.761 10.2327 23.8576C10.2654 24.9706 9.20422 24.8235 8.81257 24.6271C8.42059 24.447 8.30631 23.8905 7.81654 23.9886C7.34326 24.1032 6.88599 24.1032 6.83701 23.5468Z" fill="#E6F7FF"/>
<path fill-rule="evenodd" clip-rule="evenodd" d="M6.83701 23.5468C6.83701 23.5468 6.77187 22.663 7.60431 22.3356C8.92668 21.8282 10.2002 22.761 10.2327 23.8576C10.2654 24.9706 9.20422 24.8235 8.81257 24.6271C8.42059 24.447 8.30631 23.8905 7.81654 23.9886C7.34326 24.1032 6.88599 24.1032 6.83701 23.5468Z" stroke="#2150B7" stroke-width="0.5" stroke-linecap="round" stroke-linejoin="round"/>
<path fill-rule="evenodd" clip-rule="evenodd" d="M10.1009 10.2453C10.1009 10.4254 9.95397 10.5727 9.77439 10.5727C9.59464 10.5727 9.44788 10.4254 9.44788 10.2453C9.44788 10.0651 9.59464 9.91797 9.77439 9.91797C9.95397 9.91797 10.1009 10.0489 10.1009 10.2453Z" fill="#2150B7"/>
<path d="M14.6288 9.50317L16.0704 13.9722" stroke="#2150B7" stroke-width="0.5" stroke-linecap="round" stroke-linejoin="round"/>
<path d="M17.193 16.1377C17.193 16.1377 20.2622 21.539 18.4501 23.5524C17.5032 24.7307 14.5974 24.6488 13.8954 24.2233C13.1932 23.7813 13.1281 22.5538 14.0748 22.1446C15.185 21.6536 16.834 21.31 16.834 21.31" stroke="#2150B7" stroke-width="0.5" stroke-linecap="round" stroke-linejoin="round"/>
<path d="M15.7822 21.539L15.6516 19.7385" stroke="#2150B7" stroke-width="0.5" stroke-linecap="round" stroke-linejoin="round"/>
<path d="M15.6516 12.7004C15.6516 12.7004 16.8925 12.9134 17.3007 13.9445C17.5127 14.5992 17.1862 14.5501 18.0188 15.1556C18.8678 15.7612 17.9209 17.267 17.9209 17.267" stroke="#2150B7" stroke-width="0.5" stroke-linecap="round" stroke-linejoin="round"/>
<path fill-rule="evenodd" clip-rule="evenodd" d="M13.4923 22.2589L12.7576 21.8662C12.7576 21.8662 13.1333 22.6846 11.2883 22.7826C10.5374 22.8154 10.4557 24.1411 11.8434 24.4521C13.9169 24.8942 14.831 23.1918 13.4923 22.2589Z" fill="#E6F7FF"/>
<path fill-rule="evenodd" clip-rule="evenodd" d="M13.4923 22.2589L12.7576 21.8662C12.7576 21.8662 13.1333 22.6846 11.2883 22.7826C10.5374 22.8154 10.4557 24.1411 11.8434 24.4521C13.9169 24.8942 14.831 23.1918 13.4923 22.2589Z" stroke="#2150B7" stroke-width="0.5" stroke-linecap="round" stroke-linejoin="round"/>
</g>
</svg>
