<svg width="14" height="14" viewBox="0 0 14 14" fill="none" xmlns="http://www.w3.org/2000/svg">
<g opacity="0.65">
<mask id="mask0_0_5972" style="mask-type:luminance" maskUnits="userSpaceOnUse" x="0" y="0" width="14" height="14">
<rect width="14" height="14" fill="white"/>
</mask>
<g mask="url(#mask0_0_5972)">
<path d="M7 1C3.13359 1 0 4.20732 0 8.16469C0 10.5086 1.09922 12.5895 2.8 13.8964L2.80137 13.8936C2.88477 13.9594 2.99004 14 3.10352 14C3.37559 14 3.5957 13.7747 3.5957 13.4962C3.5957 13.3115 3.49863 13.1506 3.35371 13.0624C2.83691 12.6594 2.38574 12.171 2.0207 11.6197L2.625 11.2629C2.83418 11.1397 2.90527 10.8654 2.78496 10.6513C2.66465 10.4372 2.39668 10.3645 2.1875 10.4876L1.5832 10.8445C1.25918 10.1616 1.05547 9.40732 1.00078 8.61249H1.69531C1.9373 8.61249 2.13281 8.41238 2.13281 8.16469C2.13281 7.91701 1.9373 7.7169 1.69531 7.7169H1.00078C1.05684 6.91927 1.26191 6.16362 1.58594 5.47793L2.1875 5.83337C2.39668 5.95651 2.66465 5.88375 2.78496 5.66964C2.90527 5.45554 2.83418 5.18127 2.625 5.05813L2.0248 4.70409C2.45137 4.06319 2.99277 3.50904 3.61895 3.07244L3.96484 3.68676C4.08516 3.90086 4.35312 3.97363 4.5623 3.85048C4.77148 3.72734 4.84258 3.45307 4.72227 3.23897L4.375 2.62325C5.04355 2.2902 5.78184 2.0817 6.5625 2.02433V2.7352C6.5625 2.98288 6.75801 3.18299 7 3.18299C7.24199 3.18299 7.4375 2.98288 7.4375 2.7352V2.02433C8.21406 2.0817 8.95098 2.2902 9.61816 2.62045L9.26953 3.23897C9.14922 3.45307 9.22031 3.72734 9.42949 3.85048C9.63867 3.97363 9.90664 3.90086 10.027 3.68676L10.3756 3.06825C11.0045 3.50484 11.5473 4.06039 11.9752 4.70409L11.375 5.05813C11.1658 5.18127 11.0947 5.45554 11.215 5.66964C11.3354 5.88375 11.6033 5.95651 11.8125 5.83337L12.4141 5.47793C12.7395 6.16222 12.9432 6.91927 12.9992 7.7169H12.3047C12.0627 7.7169 11.8672 7.91701 11.8672 8.16469C11.8672 8.41238 12.0627 8.61249 12.3047 8.61249H12.9992C12.9432 9.40872 12.7395 10.1616 12.4168 10.8445L11.8125 10.4876C11.6033 10.3645 11.3354 10.4372 11.215 10.6513C11.0947 10.8654 11.1658 11.1397 11.375 11.2629L11.9793 11.6197C11.6047 12.185 11.1412 12.6818 10.6094 13.0904L10.6121 13.0946C10.4932 13.187 10.418 13.3325 10.418 13.4962C10.418 13.7747 10.6381 14 10.9102 14C11.0469 14 11.1713 13.9426 11.2615 13.8489C12.9268 12.5405 14 10.4806 14 8.16469C14 4.20732 10.8664 1 7 1Z" fill="white"/>
<path d="M9.15469 5.88092L7.43613 7.25508C7.30488 7.18791 7.15586 7.15153 7 7.15153C6.45586 7.15153 6.01562 7.60212 6.01562 8.15907C6.01562 8.71601 6.45586 9.1666 7 9.1666C7.54414 9.1666 7.98438 8.71601 7.98438 8.15907C7.98438 8.0933 7.97891 8.03033 7.9666 7.96875L9.69336 6.58619C9.8834 6.43366 9.91758 6.15239 9.76855 5.95788C9.61953 5.76337 9.34473 5.72839 9.15469 5.88092Z" fill="white"/>
</g>
</g>
</svg>
